<svg width="97" height="16" viewBox="0 0 97 16" fill="none" xmlns="http://www.w3.org/2000/svg">
<path d="M4.53728 10.7547C4.66763 11.6148 5.011 12.1759 5.56898 12.4381C6.12695 12.7002 6.7962 12.8313 7.57673 12.8313C8.50669 12.8313 9.1664 12.7194 9.55746 12.494C9.96601 12.251 10.1711 11.8674 10.1711 11.3446C10.1711 10.9705 10.0407 10.6428 9.78002 10.363C9.53839 10.0833 9.06467 9.88665 8.35726 9.77475L6.3495 9.43744C4.58338 9.15768 3.26236 8.67969 2.38804 8.00666C1.5328 7.31446 1.10517 6.27695 1.10517 4.89253C1.10517 4.18114 1.2546 3.54648 1.55187 2.98536C1.86822 2.42424 2.30538 1.94785 2.86335 1.55459C3.42133 1.16133 4.08104 0.862382 4.84408 0.656159C5.62461 0.43235 6.47986 0.318848 7.40982 0.318848C8.56233 0.318848 9.53044 0.440344 10.311 0.683336C11.0915 0.907144 11.7242 1.21568 12.2075 1.60894C12.7098 2.00221 13.0818 2.46901 13.3234 3.01094C13.5841 3.55288 13.7701 4.13318 13.8814 4.75025L10.3952 5.19947C10.2283 4.52644 9.93104 4.03087 9.50342 3.71274C9.09487 3.39461 8.42562 3.23635 7.49566 3.23635C6.97425 3.23635 6.53868 3.28271 6.18418 3.37703C5.84876 3.45216 5.5801 3.55448 5.37504 3.68556C5.18904 3.81665 5.04915 3.96533 4.95695 4.13478C4.88224 4.30264 4.84567 4.4625 4.84567 4.61117C4.84567 5.07797 4.98557 5.42487 5.26376 5.64868C5.56103 5.85491 6.12854 6.03235 6.96471 6.18103L8.80555 6.48956C9.82771 6.65742 10.675 6.87324 11.3443 7.13541C12.0135 7.39759 12.5445 7.72371 12.9339 8.11697C13.3425 8.49105 13.6223 8.94026 13.7701 9.46302C13.937 9.98737 14.0213 10.5948 14.0213 11.2871C14.0213 12.6715 13.4999 13.7841 12.4586 14.625C11.4174 15.4483 9.80863 15.8591 7.63237 15.8591C6.75805 15.8591 5.92188 15.7744 5.12228 15.6066C4.34175 15.4563 3.63434 15.1861 3.00165 14.7929C2.38804 14.3996 1.87616 13.8768 1.46762 13.2214C1.07656 12.5676 0.854005 11.7443 0.798367 10.7531H4.53569L4.53728 10.7547Z" fill="#323232" fill-opacity="0.9"/>
<path d="M25.3512 13.5603C24.7741 14.2141 24.124 14.7481 23.3991 15.1589C22.6917 15.5698 21.7712 15.776 20.6378 15.776C19.9876 15.776 19.3645 15.6913 18.7683 15.5234C18.1913 15.3556 17.681 15.0934 17.2343 14.7385C16.8067 14.3836 16.4633 13.9344 16.2026 13.3924C15.9419 12.8313 15.8116 12.1679 15.8116 11.4006C15.8116 10.3902 16.0341 9.56852 16.4808 8.93227C16.9275 8.29601 17.5125 7.80044 18.2374 7.44554C18.9623 7.09065 19.7714 6.83806 20.6648 6.68779C21.5757 6.53752 22.4961 6.4448 23.4261 6.40803L25.2955 6.3233V5.59433C25.2955 4.6975 25.0444 4.07883 24.542 3.74311C24.0588 3.4058 23.4817 3.23795 22.8125 3.23795C21.2689 3.23795 20.385 3.82624 20.1625 5.00443L16.5921 4.66712C16.8528 3.13404 17.522 2.03098 18.5998 1.35636C19.6776 0.664152 21.129 0.318848 22.9508 0.318848C24.0667 0.318848 25.0142 0.459527 25.7963 0.739287C26.5768 1.00146 27.2 1.38513 27.6657 1.8887C28.149 2.39387 28.494 3.01094 28.6974 3.73992C28.92 4.45131 29.0329 5.25542 29.0329 6.15225V15.4083H25.3512V13.5571V13.5603ZM25.2685 8.87632L23.539 8.96105C22.7203 8.99781 22.0606 9.08254 21.5582 9.21363C21.0559 9.34472 20.6648 9.51257 20.3866 9.7188C20.1259 9.90584 19.9495 10.1296 19.8573 10.3918C19.7635 10.654 19.7174 10.9433 19.7174 11.2615C19.7174 11.7475 19.8843 12.1311 20.2197 12.4109C20.5551 12.6907 21.0193 12.8313 21.6139 12.8313C22.6185 12.8313 23.4356 12.5979 24.0683 12.1295C24.4212 11.8674 24.7105 11.5412 24.9331 11.148C25.1557 10.7371 25.2685 10.232 25.2685 9.63247V8.87472V8.87632Z" fill="#323232" fill-opacity="0.9"/>
<path d="M32.3401 0.76954H36.133V2.81739C36.6163 2.05004 37.2029 1.48093 37.8896 1.10685C38.578 0.713588 39.3029 0.518555 40.0659 0.518555C40.4379 0.518555 40.7447 0.537739 40.9863 0.574507C41.2279 0.593691 41.4425 0.620867 41.6285 0.659234L41.1548 4.22098C40.7081 4.10908 40.1597 4.05313 39.5095 4.05313C39.0819 4.05313 38.6733 4.10908 38.2823 4.22098C37.8912 4.3153 37.5383 4.50075 37.222 4.7821C36.8865 5.08105 36.637 5.41836 36.4685 5.79244C36.319 6.16652 36.2459 6.55019 36.2459 6.94186V15.413H32.3401V0.76954Z" fill="#323232" fill-opacity="0.9"/>
<path d="M43.0648 0.769043H47.5843L50.8479 10.9523L54.1115 0.769043H58.4354L52.6887 15.4125H48.7829L43.0648 0.769043Z" fill="#323232" fill-opacity="0.9"/>
<path d="M68.7158 13.5603C68.1388 14.2141 67.4886 14.7481 66.7637 15.1589C66.0563 15.5698 65.1359 15.776 64.0024 15.776C63.3523 15.776 62.7291 15.6913 62.133 15.5234C61.5559 15.3556 61.0456 15.0934 60.5989 14.7385C60.1713 14.3836 59.8279 13.9344 59.5672 13.3924C59.3065 12.8313 59.1762 12.1679 59.1762 11.4006C59.1762 10.3902 59.3987 9.56852 59.8454 8.93227C60.2921 8.29601 60.8771 7.80044 61.602 7.44554C62.3269 7.09065 63.1361 6.83806 64.0295 6.68779C64.9403 6.53752 65.8608 6.4448 66.7907 6.40803L68.6602 6.3233V5.59433C68.6602 4.6975 68.409 4.07883 67.9067 3.74311C67.4234 3.4058 66.8464 3.23795 66.1771 3.23795C64.6335 3.23795 63.7497 3.82624 63.5271 5.00443L59.9567 4.66712C60.2174 3.13404 60.8867 2.03098 61.9645 1.35636C63.0423 0.664152 64.4936 0.318848 66.3154 0.318848C67.4314 0.318848 68.3804 0.459527 69.1609 0.739287C69.9414 1.00146 70.5646 1.38513 71.0304 1.8887C71.5136 2.39387 71.857 3.01094 72.0621 3.73992C72.2846 4.45131 72.3959 5.25542 72.3959 6.15225V15.4083H68.7142V13.5571L68.7158 13.5603ZM68.6331 8.87632L66.9036 8.96105C66.0849 8.99781 65.4252 9.08254 64.9228 9.21363C64.4205 9.34472 64.031 9.51257 63.7513 9.7188C63.4906 9.90584 63.3141 10.1296 63.2219 10.3918C63.1297 10.654 63.082 10.9433 63.082 11.2615C63.082 11.7475 63.2489 12.1311 63.5843 12.4109C63.9198 12.6907 64.384 12.8313 64.9785 12.8313C65.9832 12.8313 66.8003 12.5979 67.4329 12.1295C67.7859 11.8674 68.0752 11.5412 68.2977 11.148C68.5203 10.7371 68.6316 10.232 68.6316 9.63247V8.87472L68.6331 8.87632Z" fill="#323232" fill-opacity="0.9"/>
<path d="M75.7044 0.770016H79.4973V2.73313C80.0362 1.90984 80.6689 1.30236 81.3938 0.909097C82.1187 0.515834 82.8801 0.320801 83.6813 0.320801C84.7417 0.320801 85.6064 0.536616 86.2757 0.966648C86.9449 1.39668 87.4187 2.02334 87.6984 2.84664C88.3677 1.94821 89.0751 1.30396 89.8175 0.910696C90.5614 0.517432 91.3801 0.322399 92.2719 0.322399C93.7789 0.322399 94.9028 0.74284 95.6468 1.58532C96.4099 2.40861 96.7898 3.75466 96.7898 5.62506V15.4151H92.884V6.159C92.884 5.63465 92.8379 5.21421 92.7441 4.89608C92.6519 4.55877 92.5215 4.29819 92.3546 4.11115C92.2052 3.92411 92.0208 3.79303 91.7966 3.71789C91.5741 3.64276 91.3404 3.60599 91.0988 3.60599C90.7093 3.60599 90.3452 3.67153 90.0114 3.80262C89.6951 3.93371 89.3787 4.15751 89.0624 4.47564C88.8017 4.73782 88.5887 5.03676 88.4202 5.37407C88.2707 5.71138 88.1976 6.06628 88.1976 6.44036V15.4167H84.2934V6.1606C84.2934 5.63625 84.2473 5.21581 84.1535 4.89768C84.0613 4.56037 83.9309 4.29979 83.7624 4.11275C83.6146 3.92571 83.4286 3.79463 83.2044 3.71949C82.9819 3.64435 82.7498 3.60759 82.5066 3.60759C82.1155 3.60759 81.7531 3.67313 81.4192 3.80422C81.1029 3.9353 80.7865 4.15911 80.4718 4.47724C80.2111 4.73942 79.9965 5.05754 79.8296 5.43162C79.6801 5.78652 79.607 6.17978 79.607 6.60982V15.4183H75.7012V0.770016H75.7044Z" fill="#323232" fill-opacity="0.9"/>
</svg>
